<?xml version="1.0" standalone="no"?>
<!DOCTYPE svg PUBLIC "-//W3C//DTD SVG 20010904//EN"
 "http://www.w3.org/TR/2001/REC-SVG-20010904/DTD/svg10.dtd">
<svg version="1.0" xmlns="http://www.w3.org/2000/svg"
 width="90pt" height="50pt" viewBox="0 0 346.000000 82.000000"
 preserveAspectRatio="xMidYMid meet">
<metadata>
Created by potrace 1.16, written by Peter Selinger 2001-2019
</metadata>
<g transform="translate(0.000000,82.000000) scale(0.100000,-0.100000)"
fill="#000000" stroke="none">
<path d="M610 580 l0 -140 -51 0 -51 0 4 130 4 130 -28 0 -28 0 0 -290 0 -290
25 0 25 0 0 135 0 135 50 0 50 0 0 -155 0 -155 25 0 25 0 0 298 c0 163 3 307
6 320 6 19 3 22 -25 22 l-31 0 0 -140z"/>
<path d="M1300 400 l0 -320 25 0 25 0 0 289 c0 159 3 303 6 320 6 29 5 31 -25
31 l-31 0 0 -320z"/>
<path d="M194 646 c-42 -19 -70 -57 -84 -117 -26 -106 5 -243 62 -283 34 -24
109 -21 143 6 46 36 65 91 65 192 0 116 -23 169 -84 197 -49 22 -61 23 -102 5z
m81 -52 c37 -15 61 -111 50 -200 -13 -105 -88 -150 -137 -82 -24 35 -36 135
-24 202 13 67 58 100 111 80z"/>
<path d="M2010 618 c-37 -22 -64 -49 -85 -82 -26 -43 -30 -59 -30 -120 0 -62
4 -77 31 -121 45 -73 110 -105 214 -105 94 0 123 10 174 58 54 52 76 104 76
181 0 96 -30 142 -123 187 -59 28 -83 34 -137 34 -57 0 -74 -5 -120 -32z m227
-13 c61 -37 77 -72 78 -175 0 -151 -56 -220 -178 -220 -78 0 -109 18 -141 82
-42 84 -32 231 19 288 50 55 151 66 222 25z"/>
<path d="M830 615 c0 -24 2 -25 75 -25 86 0 86 1 61 -101 -17 -76 -55 -138
-117 -192 l-51 -45 26 -18 27 -17 55 54 c30 30 65 75 78 102 l24 47 36 -63
c20 -36 55 -80 81 -102 44 -36 47 -37 66 -20 25 23 24 42 -1 50 -30 9 -117
122 -135 174 -8 24 -15 64 -15 88 l0 43 75 0 c73 0 75 1 75 25 l0 25 -180 0
-180 0 0 -25z"/>
<path d="M2954 614 c13 -13 16 -45 16 -189 0 -172 0 -174 -26 -204 l-26 -31
217 2 218 3 13 45 c8 25 14 46 14 48 0 10 -29 -1 -34 -14 -10 -26 -87 -52
-177 -59 -125 -10 -129 -7 -129 105 l0 90 95 0 c82 0 98 -3 115 -20 11 -11 22
-20 25 -20 3 0 5 27 5 61 l0 61 -31 -26 c-28 -24 -38 -26 -126 -26 -83 0 -94
2 -89 16 3 9 6 47 6 85 l0 69 94 0 c101 0 138 -9 173 -42 29 -27 37 -19 29 27
l-7 35 -195 0 c-178 0 -194 -1 -180 -16z"/>
<path d="M1493 585 c-19 -40 -11 -56 16 -31 11 10 39 24 64 31 47 14 173 23
183 12 3 -3 -9 -27 -27 -54 -52 -76 -224 -306 -242 -325 -9 -9 -17 -19 -17
-22 0 -3 86 -6 190 -6 l190 0 10 26 c6 14 10 37 10 52 l0 26 -29 -28 c-15 -15
-50 -34 -76 -42 -62 -18 -175 -19 -175 -1 0 17 172 269 263 385 7 9 -27 12
-167 12 l-176 0 -17 -35z"/>
<path d="M2448 600 c21 -20 22 -29 22 -180 0 -167 -7 -200 -44 -218 -17 -8 -6
-11 52 -11 46 -1 71 3 67 9 -3 6 -12 10 -19 10 -21 0 -26 35 -25 195 l0 150
100 -105 c55 -58 132 -141 171 -185 40 -44 75 -82 80 -83 4 -2 8 78 8 178 0
188 4 210 44 242 20 17 19 18 -49 18 l-70 0 25 -20 c24 -18 25 -23 28 -160 l4
-140 -95 97 c-52 54 -118 126 -147 161 l-53 62 -60 0 -61 0 22 -20z"/>
</g>
</svg>
